<mxfile host="app.diagrams.net" modified="2021-11-18T09:48:40.926Z" agent="5.0 (Windows NT 10.0; Win64; x64) AppleWebKit/537.36 (KHTML, like Gecko) Chrome/95.0.4638.69 Safari/537.36 Edg/95.0.1020.44" etag="VAlmzlY7pW-D0nmmRedS" version="15.7.4" type="github">
  <diagram id="CUDyPsT_5cI4i0Bhv10b" name="Page-1">
    <mxGraphModel dx="868" dy="482" grid="1" gridSize="10" guides="0" tooltips="1" connect="1" arrows="1" fold="1" page="1" pageScale="1" pageWidth="827" pageHeight="1169" math="0" shadow="0">
      <root>
        <mxCell id="0" />
        <mxCell id="1" parent="0" />
        <mxCell id="MFzKN-prpjDhxRkjpTHA-7" value="" style="edgeStyle=orthogonalEdgeStyle;rounded=0;orthogonalLoop=1;jettySize=auto;html=1;fontSize=20;" parent="1" source="MFzKN-prpjDhxRkjpTHA-1" target="MFzKN-prpjDhxRkjpTHA-6" edge="1">
          <mxGeometry relative="1" as="geometry" />
        </mxCell>
        <mxCell id="MFzKN-prpjDhxRkjpTHA-1" value="xcontrl_ledControl(cJSON *jsonRecv)" style="rounded=1;whiteSpace=wrap;html=1;" parent="1" vertex="1">
          <mxGeometry x="99" y="141" width="241" height="60" as="geometry" />
        </mxCell>
        <mxCell id="MFzKN-prpjDhxRkjpTHA-3" value="" style="edgeStyle=orthogonalEdgeStyle;rounded=0;orthogonalLoop=1;jettySize=auto;html=1;fontSize=20;" parent="1" source="MFzKN-prpjDhxRkjpTHA-2" target="MFzKN-prpjDhxRkjpTHA-1" edge="1">
          <mxGeometry relative="1" as="geometry" />
        </mxCell>
        <mxCell id="MFzKN-prpjDhxRkjpTHA-2" value="设备和平台建立连接后，平台通过接口将控制命令下发给设备" style="text;html=1;strokeColor=none;fillColor=none;align=center;verticalAlign=middle;whiteSpace=wrap;rounded=0;fontSize=20;" parent="1" vertex="1">
          <mxGeometry x="10" y="70" width="300" height="30" as="geometry" />
        </mxCell>
        <mxCell id="MFzKN-prpjDhxRkjpTHA-9" value="" style="edgeStyle=orthogonalEdgeStyle;rounded=0;orthogonalLoop=1;jettySize=auto;html=1;fontSize=20;" parent="1" source="MFzKN-prpjDhxRkjpTHA-6" target="MFzKN-prpjDhxRkjpTHA-8" edge="1">
          <mxGeometry relative="1" as="geometry" />
        </mxCell>
        <mxCell id="MFzKN-prpjDhxRkjpTHA-6" value="si_xcontrol_ledControl(jsonRecv)" style="rounded=1;whiteSpace=wrap;html=1;" parent="1" vertex="1">
          <mxGeometry x="99" y="281" width="241" height="60" as="geometry" />
        </mxCell>
        <mxCell id="MFzKN-prpjDhxRkjpTHA-11" value="" style="edgeStyle=orthogonalEdgeStyle;rounded=0;orthogonalLoop=1;jettySize=auto;html=1;fontSize=20;" parent="1" source="MFzKN-prpjDhxRkjpTHA-8" target="MFzKN-prpjDhxRkjpTHA-10" edge="1">
          <mxGeometry relative="1" as="geometry" />
        </mxCell>
        <mxCell id="MFzKN-prpjDhxRkjpTHA-8" value="cJSON_GetObjectItem(jsonRecv,&quot;data&quot;)" style="rounded=1;whiteSpace=wrap;html=1;" parent="1" vertex="1">
          <mxGeometry x="99" y="421" width="241" height="60" as="geometry" />
        </mxCell>
        <mxCell id="MFzKN-prpjDhxRkjpTHA-13" value="" style="edgeStyle=orthogonalEdgeStyle;rounded=0;orthogonalLoop=1;jettySize=auto;html=1;fontSize=20;" parent="1" source="MFzKN-prpjDhxRkjpTHA-10" target="MFzKN-prpjDhxRkjpTHA-12" edge="1">
          <mxGeometry relative="1" as="geometry" />
        </mxCell>
        <mxCell id="MFzKN-prpjDhxRkjpTHA-10" value="parse_ledcontrol(cJSON *data)" style="rounded=1;whiteSpace=wrap;html=1;" parent="1" vertex="1">
          <mxGeometry x="99" y="561" width="241" height="60" as="geometry" />
        </mxCell>
        <mxCell id="MFzKN-prpjDhxRkjpTHA-15" value="" style="edgeStyle=orthogonalEdgeStyle;rounded=0;orthogonalLoop=1;jettySize=auto;html=1;fontSize=20;" parent="1" source="MFzKN-prpjDhxRkjpTHA-12" target="MFzKN-prpjDhxRkjpTHA-14" edge="1">
          <mxGeometry relative="1" as="geometry" />
        </mxCell>
        <mxCell id="MFzKN-prpjDhxRkjpTHA-31" value="CTSGW进程" style="rounded=1;whiteSpace=wrap;html=1;fontSize=20;labelBackgroundColor=none;verticalAlign=top;" parent="1" vertex="1">
          <mxGeometry y="1010" width="750" height="360" as="geometry" />
        </mxCell>
        <mxCell id="MFzKN-prpjDhxRkjpTHA-12" value="cJSON *point = cJSON_GetObjectItem" style="rounded=1;whiteSpace=wrap;html=1;" parent="1" vertex="1">
          <mxGeometry x="99" y="701" width="241" height="60" as="geometry" />
        </mxCell>
        <mxCell id="MFzKN-prpjDhxRkjpTHA-14" value="ctSgw_ssend_to_proxy(CTSGW_EVENT_SET_LED,&amp;amp;LedOnOff,sizeof(LedOnOff),pAck,&amp;amp;wAckLen)" style="rounded=1;whiteSpace=wrap;html=1;" parent="1" vertex="1">
          <mxGeometry x="10" y="860" width="542" height="60" as="geometry" />
        </mxCell>
        <mxCell id="MFzKN-prpjDhxRkjpTHA-19" value="" style="edgeStyle=orthogonalEdgeStyle;rounded=0;orthogonalLoop=1;jettySize=auto;html=1;fontSize=20;" parent="1" source="MFzKN-prpjDhxRkjpTHA-16" target="MFzKN-prpjDhxRkjpTHA-18" edge="1">
          <mxGeometry relative="1" as="geometry" />
        </mxCell>
        <mxCell id="MFzKN-prpjDhxRkjpTHA-16" value="{CTSGW_EVENT_SET_LED,ctSgw_proxy_set_led}&lt;br&gt;csSgw_proxy_set_led()" style="rounded=1;whiteSpace=wrap;html=1;" parent="1" vertex="1">
          <mxGeometry x="10" y="1120" width="470" height="60" as="geometry" />
        </mxCell>
        <mxCell id="MFzKN-prpjDhxRkjpTHA-18" value="pm_pdt_ctl_leds(DOWRD cmd)" style="rounded=1;whiteSpace=wrap;html=1;" parent="1" vertex="1">
          <mxGeometry x="10" y="1260" width="470" height="60" as="geometry" />
        </mxCell>
        <mxCell id="MFzKN-prpjDhxRkjpTHA-20" value="dpiPlugin调用接口" style="text;html=1;strokeColor=none;fillColor=none;align=center;verticalAlign=middle;whiteSpace=wrap;rounded=0;fontSize=20;" parent="1" vertex="1">
          <mxGeometry x="414" y="156" width="196" height="30" as="geometry" />
        </mxCell>
        <mxCell id="MFzKN-prpjDhxRkjpTHA-21" value="本地编写接口，执行主要任务" style="text;html=1;strokeColor=none;fillColor=none;align=center;verticalAlign=middle;whiteSpace=wrap;rounded=0;fontSize=20;" parent="1" vertex="1">
          <mxGeometry x="414" y="281" width="196" height="30" as="geometry" />
        </mxCell>
        <mxCell id="MFzKN-prpjDhxRkjpTHA-22" value="获取json请求信息" style="text;html=1;strokeColor=none;fillColor=none;align=center;verticalAlign=middle;whiteSpace=wrap;rounded=0;fontSize=20;" parent="1" vertex="1">
          <mxGeometry x="430" y="436" width="188" height="30" as="geometry" />
        </mxCell>
        <mxCell id="MFzKN-prpjDhxRkjpTHA-23" value="解析json关键词" style="text;html=1;strokeColor=none;fillColor=none;align=center;verticalAlign=middle;whiteSpace=wrap;rounded=0;fontSize=20;" parent="1" vertex="1">
          <mxGeometry x="430" y="570" width="210" height="30" as="geometry" />
        </mxCell>
        <mxCell id="MFzKN-prpjDhxRkjpTHA-24" value="将json关键词对应值赋给cJSON指针" style="text;html=1;strokeColor=none;fillColor=none;align=center;verticalAlign=middle;whiteSpace=wrap;rounded=0;fontSize=20;" parent="1" vertex="1">
          <mxGeometry x="430" y="701" width="210" height="49" as="geometry" />
        </mxCell>
        <mxCell id="MFzKN-prpjDhxRkjpTHA-26" value="发送消息事件给进程" style="text;html=1;strokeColor=none;fillColor=none;align=center;verticalAlign=middle;whiteSpace=wrap;rounded=0;fontSize=20;" parent="1" vertex="1">
          <mxGeometry x="560" y="875" width="250" height="30" as="geometry" />
        </mxCell>
        <mxCell id="MFzKN-prpjDhxRkjpTHA-27" value="根据结构体，执行关联函数" style="text;html=1;strokeColor=none;fillColor=none;align=center;verticalAlign=middle;whiteSpace=wrap;rounded=0;fontSize=20;" parent="1" vertex="1">
          <mxGeometry x="500" y="1140" width="220" height="30" as="geometry" />
        </mxCell>
        <mxCell id="MFzKN-prpjDhxRkjpTHA-28" value="执行pmAPI，控制led" style="text;html=1;strokeColor=none;fillColor=none;align=center;verticalAlign=middle;whiteSpace=wrap;rounded=0;fontSize=20;" parent="1" vertex="1">
          <mxGeometry x="510" y="1275" width="200" height="30" as="geometry" />
        </mxCell>
        <mxCell id="MFzKN-prpjDhxRkjpTHA-30" value="" style="edgeStyle=orthogonalEdgeStyle;rounded=0;orthogonalLoop=1;jettySize=auto;html=1;fontSize=20;" parent="1" source="MFzKN-prpjDhxRkjpTHA-29" target="MFzKN-prpjDhxRkjpTHA-14" edge="1">
          <mxGeometry relative="1" as="geometry" />
        </mxCell>
        <mxCell id="MFzKN-prpjDhxRkjpTHA-29" value="" style="html=1;verticalLabelPosition=bottom;align=center;labelBackgroundColor=#ffffff;verticalAlign=top;strokeWidth=2;strokeColor=#0080F0;shadow=0;dashed=0;shape=mxgraph.ios7.icons.wifi;pointerEvents=1;fontSize=20;rotation=-180;" parent="1" vertex="1">
          <mxGeometry x="250.3" y="930" width="59.7" height="41" as="geometry" />
        </mxCell>
        <mxCell id="5_94e8n7h1rJNtOSXoxy-5" value="" style="edgeStyle=orthogonalEdgeStyle;rounded=0;orthogonalLoop=1;jettySize=auto;html=1;" edge="1" parent="1" source="5_94e8n7h1rJNtOSXoxy-3" target="5_94e8n7h1rJNtOSXoxy-4">
          <mxGeometry relative="1" as="geometry" />
        </mxCell>
        <mxCell id="5_94e8n7h1rJNtOSXoxy-3" value="xquery_STAInfo()厂商适配获取下挂设备信息" style="rounded=1;whiteSpace=wrap;html=1;" vertex="1" parent="1">
          <mxGeometry x="900" y="80" width="380" height="60" as="geometry" />
        </mxCell>
        <mxCell id="5_94e8n7h1rJNtOSXoxy-9" value="" style="edgeStyle=orthogonalEdgeStyle;rounded=0;orthogonalLoop=1;jettySize=auto;html=1;" edge="1" parent="1" source="5_94e8n7h1rJNtOSXoxy-4" target="5_94e8n7h1rJNtOSXoxy-8">
          <mxGeometry relative="1" as="geometry" />
        </mxCell>
        <mxCell id="5_94e8n7h1rJNtOSXoxy-48" value="" style="edgeStyle=orthogonalEdgeStyle;rounded=0;orthogonalLoop=1;jettySize=auto;html=1;" edge="1" parent="1" source="5_94e8n7h1rJNtOSXoxy-4" target="5_94e8n7h1rJNtOSXoxy-47">
          <mxGeometry relative="1" as="geometry" />
        </mxCell>
        <mxCell id="5_94e8n7h1rJNtOSXoxy-4" value="get_stainfo_data(cJSON *jsonSend)" style="rounded=1;whiteSpace=wrap;html=1;" vertex="1" parent="1">
          <mxGeometry x="900" y="220" width="380" height="60" as="geometry" />
        </mxCell>
        <mxCell id="5_94e8n7h1rJNtOSXoxy-11" value="" style="edgeStyle=orthogonalEdgeStyle;rounded=0;orthogonalLoop=1;jettySize=auto;html=1;" edge="1" parent="1" source="5_94e8n7h1rJNtOSXoxy-8" target="5_94e8n7h1rJNtOSXoxy-10">
          <mxGeometry relative="1" as="geometry" />
        </mxCell>
        <mxCell id="5_94e8n7h1rJNtOSXoxy-8" value="初始化各种空数值数据类型，用来后续存储各种数据" style="whiteSpace=wrap;html=1;rounded=1;" vertex="1" parent="1">
          <mxGeometry x="900" y="330" width="380" height="60" as="geometry" />
        </mxCell>
        <mxCell id="5_94e8n7h1rJNtOSXoxy-13" value="" style="edgeStyle=orthogonalEdgeStyle;rounded=0;orthogonalLoop=1;jettySize=auto;html=1;" edge="1" parent="1" source="5_94e8n7h1rJNtOSXoxy-10" target="5_94e8n7h1rJNtOSXoxy-12">
          <mxGeometry relative="1" as="geometry">
            <Array as="points">
              <mxPoint x="1310" y="500" />
              <mxPoint x="1310" y="340" />
            </Array>
          </mxGeometry>
        </mxCell>
        <mxCell id="5_94e8n7h1rJNtOSXoxy-10" value="trigger_sta_refresh()&lt;br&gt;刷新下挂设备数据" style="whiteSpace=wrap;html=1;rounded=1;" vertex="1" parent="1">
          <mxGeometry x="900" y="470" width="380" height="60" as="geometry" />
        </mxCell>
        <mxCell id="5_94e8n7h1rJNtOSXoxy-15" value="" style="edgeStyle=orthogonalEdgeStyle;rounded=0;orthogonalLoop=1;jettySize=auto;html=1;" edge="1" parent="1" source="5_94e8n7h1rJNtOSXoxy-12" target="5_94e8n7h1rJNtOSXoxy-14">
          <mxGeometry relative="1" as="geometry" />
        </mxCell>
        <mxCell id="5_94e8n7h1rJNtOSXoxy-12" value="ctSgw_ssend_toProxy(CTSGW_EVENT_LIST_AD,szInstIdentity...)&lt;br&gt;发”IGD.LD1.WLAN1“给这个事件ID" style="whiteSpace=wrap;html=1;rounded=1;" vertex="1" parent="1">
          <mxGeometry x="1340" y="310" width="380" height="60" as="geometry" />
        </mxCell>
        <mxCell id="5_94e8n7h1rJNtOSXoxy-14" value="ctSgw_ssend_toProxy(CTSGW_EVENT_LIST_AD,szInstIdentity...)&lt;br&gt;发”IGD.LD1.WLAN5“给这个事件ID" style="whiteSpace=wrap;html=1;rounded=1;" vertex="1" parent="1">
          <mxGeometry x="1340" y="450" width="380" height="60" as="geometry" />
        </mxCell>
        <mxCell id="5_94e8n7h1rJNtOSXoxy-17" value="" style="html=1;verticalLabelPosition=bottom;align=center;labelBackgroundColor=#ffffff;verticalAlign=top;strokeWidth=2;strokeColor=#0080F0;shadow=0;dashed=0;shape=mxgraph.ios7.icons.wifi;pointerEvents=1;fontSize=20;rotation=-30;direction=south;" vertex="1" parent="1">
          <mxGeometry x="1732.01" y="377.5" width="71" height="59.7" as="geometry" />
        </mxCell>
        <mxCell id="5_94e8n7h1rJNtOSXoxy-21" value="" style="edgeStyle=orthogonalEdgeStyle;rounded=0;orthogonalLoop=1;jettySize=auto;html=1;" edge="1" parent="1" source="5_94e8n7h1rJNtOSXoxy-19" target="5_94e8n7h1rJNtOSXoxy-20">
          <mxGeometry relative="1" as="geometry" />
        </mxCell>
        <mxCell id="5_94e8n7h1rJNtOSXoxy-19" value="ctSgw_proxy_list_ad()" style="rounded=1;whiteSpace=wrap;html=1;" vertex="1" parent="1">
          <mxGeometry x="1810" y="330" width="250" height="60" as="geometry" />
        </mxCell>
        <mxCell id="5_94e8n7h1rJNtOSXoxy-23" value="" style="edgeStyle=orthogonalEdgeStyle;rounded=0;orthogonalLoop=1;jettySize=auto;html=1;" edge="1" parent="1" source="5_94e8n7h1rJNtOSXoxy-20" target="5_94e8n7h1rJNtOSXoxy-22">
          <mxGeometry relative="1" as="geometry">
            <Array as="points">
              <mxPoint x="2100" y="500" />
              <mxPoint x="2100" y="400" />
            </Array>
          </mxGeometry>
        </mxCell>
        <mxCell id="5_94e8n7h1rJNtOSXoxy-20" value="//获取下挂设备数据表列表接口&lt;br&gt;pm_wlan_list_ad" style="rounded=1;whiteSpace=wrap;html=1;" vertex="1" parent="1">
          <mxGeometry x="1810" y="470" width="250" height="60" as="geometry" />
        </mxCell>
        <mxCell id="5_94e8n7h1rJNtOSXoxy-26" value="" style="edgeStyle=orthogonalEdgeStyle;rounded=0;orthogonalLoop=1;jettySize=auto;html=1;" edge="1" parent="1" source="5_94e8n7h1rJNtOSXoxy-22" target="5_94e8n7h1rJNtOSXoxy-25">
          <mxGeometry relative="1" as="geometry" />
        </mxCell>
        <mxCell id="5_94e8n7h1rJNtOSXoxy-22" value="pmapi接口向功能模块发送pmapi同步消息，将信息重新写入DB表中&lt;br&gt;pm_send_msg_2mm(WLAN_OAM_PID,EV_PM_GET&lt;br&gt;,PM_OBJ_WLANAD...)" style="rounded=1;whiteSpace=wrap;html=1;" vertex="1" parent="1">
          <mxGeometry x="2140" y="370" width="300" height="60" as="geometry" />
        </mxCell>
        <mxCell id="5_94e8n7h1rJNtOSXoxy-25" value="" style="rounded=1;whiteSpace=wrap;html=1;" vertex="1" parent="1">
          <mxGeometry x="2160" y="510" width="260" height="60" as="geometry" />
        </mxCell>
        <mxCell id="5_94e8n7h1rJNtOSXoxy-27" value="" style="html=1;verticalLabelPosition=bottom;align=center;labelBackgroundColor=#ffffff;verticalAlign=top;strokeWidth=2;strokeColor=#0080F0;shadow=0;dashed=0;shape=mxgraph.ios7.icons.wifi;pointerEvents=1;fontSize=20;rotation=90;" vertex="1" parent="1">
          <mxGeometry x="2440" y="380" width="60" height="41" as="geometry" />
        </mxCell>
        <mxCell id="5_94e8n7h1rJNtOSXoxy-30" value="" style="edgeStyle=orthogonalEdgeStyle;rounded=0;orthogonalLoop=1;jettySize=auto;html=1;" edge="1" parent="1" source="5_94e8n7h1rJNtOSXoxy-28" target="5_94e8n7h1rJNtOSXoxy-29">
          <mxGeometry relative="1" as="geometry" />
        </mxCell>
        <mxCell id="5_94e8n7h1rJNtOSXoxy-28" value="cspd" style="rounded=1;whiteSpace=wrap;html=1;" vertex="1" parent="1">
          <mxGeometry x="2500" y="330" width="170" height="60" as="geometry" />
        </mxCell>
        <mxCell id="5_94e8n7h1rJNtOSXoxy-40" value="" style="edgeStyle=orthogonalEdgeStyle;rounded=0;orthogonalLoop=1;jettySize=auto;html=1;" edge="1" parent="1" source="5_94e8n7h1rJNtOSXoxy-29" target="5_94e8n7h1rJNtOSXoxy-39">
          <mxGeometry relative="1" as="geometry" />
        </mxCell>
        <mxCell id="5_94e8n7h1rJNtOSXoxy-29" value="wlan_mm_main()" style="whiteSpace=wrap;html=1;rounded=1;fontStyle=2" vertex="1" parent="1">
          <mxGeometry x="2500" y="430" width="170" height="60" as="geometry" />
        </mxCell>
        <mxCell id="5_94e8n7h1rJNtOSXoxy-34" value="" style="edgeStyle=orthogonalEdgeStyle;rounded=0;orthogonalLoop=1;jettySize=auto;html=1;" edge="1" parent="1" source="5_94e8n7h1rJNtOSXoxy-31" target="5_94e8n7h1rJNtOSXoxy-33">
          <mxGeometry relative="1" as="geometry" />
        </mxCell>
        <mxCell id="5_94e8n7h1rJNtOSXoxy-31" value="switch(tCmapiReq-&amp;gt;dwObjId)&lt;br&gt;case PM_OBK_WLANCONFIG" style="whiteSpace=wrap;html=1;rounded=1;fontStyle=2;" vertex="1" parent="1">
          <mxGeometry x="2790" y="318" width="170" height="60" as="geometry" />
        </mxCell>
        <mxCell id="5_94e8n7h1rJNtOSXoxy-36" value="" style="edgeStyle=orthogonalEdgeStyle;rounded=0;orthogonalLoop=1;jettySize=auto;html=1;" edge="1" parent="1" source="5_94e8n7h1rJNtOSXoxy-33" target="5_94e8n7h1rJNtOSXoxy-35">
          <mxGeometry relative="1" as="geometry" />
        </mxCell>
        <mxCell id="5_94e8n7h1rJNtOSXoxy-33" value="Switch(wMsgtype)&lt;br&gt;case ASYN_REQ_MSG&lt;br&gt;wlan_config_proc_asynmsg()" style="whiteSpace=wrap;html=1;rounded=1;fontStyle=2;" vertex="1" parent="1">
          <mxGeometry x="2790" y="440" width="170" height="60" as="geometry" />
        </mxCell>
        <mxCell id="5_94e8n7h1rJNtOSXoxy-38" value="" style="edgeStyle=orthogonalEdgeStyle;rounded=0;orthogonalLoop=1;jettySize=auto;html=1;" edge="1" parent="1" source="5_94e8n7h1rJNtOSXoxy-35" target="5_94e8n7h1rJNtOSXoxy-37">
          <mxGeometry relative="1" as="geometry" />
        </mxCell>
        <mxCell id="5_94e8n7h1rJNtOSXoxy-35" value="switch(wEvent)&lt;br&gt;case EV_PM_SET&lt;br&gt;handle_wlan_set" style="whiteSpace=wrap;html=1;rounded=1;fontStyle=2;" vertex="1" parent="1">
          <mxGeometry x="2790" y="570" width="170" height="60" as="geometry" />
        </mxCell>
        <mxCell id="5_94e8n7h1rJNtOSXoxy-37" value="switch(tWlanMMReq-&amp;gt;dwObjId)&lt;br&gt;case PM_OBJ_WLANAD&lt;br&gt;//从数据库获取下挂设备信息" style="whiteSpace=wrap;html=1;rounded=1;fontStyle=2;direction=east;" vertex="1" parent="1">
          <mxGeometry x="2760" y="690" width="230" height="60" as="geometry" />
        </mxCell>
        <mxCell id="5_94e8n7h1rJNtOSXoxy-43" value="" style="edgeStyle=orthogonalEdgeStyle;rounded=0;orthogonalLoop=1;jettySize=auto;html=1;" edge="1" parent="1" source="5_94e8n7h1rJNtOSXoxy-39" target="5_94e8n7h1rJNtOSXoxy-42">
          <mxGeometry relative="1" as="geometry" />
        </mxCell>
        <mxCell id="5_94e8n7h1rJNtOSXoxy-39" value="wlan_handle_parsemsg()&lt;br&gt;switch(wEvent)&lt;br&gt;case EV_PM_GET" style="whiteSpace=wrap;html=1;rounded=1;fontStyle=2" vertex="1" parent="1">
          <mxGeometry x="2500" y="570" width="170" height="60" as="geometry" />
        </mxCell>
        <mxCell id="5_94e8n7h1rJNtOSXoxy-44" style="edgeStyle=orthogonalEdgeStyle;rounded=0;orthogonalLoop=1;jettySize=auto;html=1;entryX=0;entryY=0.5;entryDx=0;entryDy=0;" edge="1" parent="1" source="5_94e8n7h1rJNtOSXoxy-42" target="5_94e8n7h1rJNtOSXoxy-31">
          <mxGeometry relative="1" as="geometry" />
        </mxCell>
        <mxCell id="5_94e8n7h1rJNtOSXoxy-42" value="wlan_handle_get()" style="whiteSpace=wrap;html=1;rounded=1;fontStyle=2" vertex="1" parent="1">
          <mxGeometry x="2500" y="710" width="170" height="60" as="geometry" />
        </mxCell>
        <mxCell id="5_94e8n7h1rJNtOSXoxy-47" value="get_stainfo_data(cJSON *jsonSend)" style="rounded=1;whiteSpace=wrap;html=1;" vertex="1" parent="1">
          <mxGeometry x="900" y="80" width="380" height="60" as="geometry" />
        </mxCell>
        <mxCell id="5_94e8n7h1rJNtOSXoxy-49" value="get_stainfo_data(cJSON *jsonSend)" style="rounded=1;whiteSpace=wrap;html=1;" vertex="1" parent="1">
          <mxGeometry x="900" y="80" width="380" height="60" as="geometry" />
        </mxCell>
        <mxCell id="5_94e8n7h1rJNtOSXoxy-50" value="get_stainfo_data(cJSON *jsonSend)" style="rounded=1;whiteSpace=wrap;html=1;" vertex="1" parent="1">
          <mxGeometry x="900" y="80" width="380" height="60" as="geometry" />
        </mxCell>
        <mxCell id="5_94e8n7h1rJNtOSXoxy-51" value="get_stainfo_data(cJSON *jsonSend)" style="rounded=1;whiteSpace=wrap;html=1;" vertex="1" parent="1">
          <mxGeometry x="900" y="80" width="380" height="60" as="geometry" />
        </mxCell>
        <mxCell id="5_94e8n7h1rJNtOSXoxy-52" value="get_stainfo_data(cJSON *jsonSend)" style="rounded=1;whiteSpace=wrap;html=1;" vertex="1" parent="1">
          <mxGeometry x="900" y="220" width="380" height="60" as="geometry" />
        </mxCell>
        <mxCell id="5_94e8n7h1rJNtOSXoxy-53" value="get_stainfo_data(cJSON *jsonSend)" style="rounded=1;whiteSpace=wrap;html=1;" vertex="1" parent="1">
          <mxGeometry x="900" y="80" width="380" height="60" as="geometry" />
        </mxCell>
        <mxCell id="5_94e8n7h1rJNtOSXoxy-54" value="get_stainfo_data(cJSON *jsonSend)" style="rounded=1;whiteSpace=wrap;html=1;" vertex="1" parent="1">
          <mxGeometry x="900" y="220" width="380" height="60" as="geometry" />
        </mxCell>
        <mxCell id="5_94e8n7h1rJNtOSXoxy-58" value="" style="edgeStyle=orthogonalEdgeStyle;rounded=0;orthogonalLoop=1;jettySize=auto;html=1;" edge="1" parent="1" source="5_94e8n7h1rJNtOSXoxy-55" target="5_94e8n7h1rJNtOSXoxy-56">
          <mxGeometry relative="1" as="geometry" />
        </mxCell>
        <mxCell id="5_94e8n7h1rJNtOSXoxy-55" value="get_stainfo_data(cJSON *jsonSend)" style="rounded=1;whiteSpace=wrap;html=1;" vertex="1" parent="1">
          <mxGeometry x="910" y="610" width="380" height="60" as="geometry" />
        </mxCell>
        <mxCell id="5_94e8n7h1rJNtOSXoxy-59" value="" style="edgeStyle=orthogonalEdgeStyle;rounded=0;orthogonalLoop=1;jettySize=auto;html=1;" edge="1" parent="1" source="5_94e8n7h1rJNtOSXoxy-56" target="5_94e8n7h1rJNtOSXoxy-57">
          <mxGeometry relative="1" as="geometry" />
        </mxCell>
        <mxCell id="5_94e8n7h1rJNtOSXoxy-56" value="get_stainfo_data(cJSON *jsonSend)" style="rounded=1;whiteSpace=wrap;html=1;" vertex="1" parent="1">
          <mxGeometry x="910" y="750" width="380" height="60" as="geometry" />
        </mxCell>
        <mxCell id="5_94e8n7h1rJNtOSXoxy-61" value="" style="edgeStyle=orthogonalEdgeStyle;rounded=0;orthogonalLoop=1;jettySize=auto;html=1;" edge="1" parent="1" source="5_94e8n7h1rJNtOSXoxy-57" target="5_94e8n7h1rJNtOSXoxy-60">
          <mxGeometry relative="1" as="geometry" />
        </mxCell>
        <mxCell id="5_94e8n7h1rJNtOSXoxy-57" value="初始化各种空数值数据类型，用来后续存储各种数据" style="whiteSpace=wrap;html=1;rounded=1;" vertex="1" parent="1">
          <mxGeometry x="910" y="870" width="380" height="60" as="geometry" />
        </mxCell>
        <mxCell id="5_94e8n7h1rJNtOSXoxy-65" value="" style="edgeStyle=orthogonalEdgeStyle;rounded=0;orthogonalLoop=1;jettySize=auto;html=1;" edge="1" parent="1" source="5_94e8n7h1rJNtOSXoxy-60" target="5_94e8n7h1rJNtOSXoxy-64">
          <mxGeometry relative="1" as="geometry" />
        </mxCell>
        <mxCell id="5_94e8n7h1rJNtOSXoxy-88" style="edgeStyle=orthogonalEdgeStyle;rounded=0;orthogonalLoop=1;jettySize=auto;html=1;entryX=0;entryY=0.5;entryDx=0;entryDy=0;" edge="1" parent="1" source="5_94e8n7h1rJNtOSXoxy-60" target="5_94e8n7h1rJNtOSXoxy-86">
          <mxGeometry relative="1" as="geometry">
            <Array as="points">
              <mxPoint x="1350" y="1040" />
              <mxPoint x="1350" y="870" />
            </Array>
          </mxGeometry>
        </mxCell>
        <mxCell id="5_94e8n7h1rJNtOSXoxy-60" value="ctSgw_ssend_to_proxy(CTSGW_EVENT_QUERY_ADEV_PARAM,....)" style="whiteSpace=wrap;html=1;rounded=1;" vertex="1" parent="1">
          <mxGeometry x="910" y="1010" width="380" height="60" as="geometry" />
        </mxCell>
        <mxCell id="5_94e8n7h1rJNtOSXoxy-76" style="edgeStyle=orthogonalEdgeStyle;rounded=0;orthogonalLoop=1;jettySize=auto;html=1;" edge="1" parent="1" source="5_94e8n7h1rJNtOSXoxy-64" target="5_94e8n7h1rJNtOSXoxy-74">
          <mxGeometry relative="1" as="geometry" />
        </mxCell>
        <mxCell id="5_94e8n7h1rJNtOSXoxy-77" style="edgeStyle=orthogonalEdgeStyle;rounded=0;orthogonalLoop=1;jettySize=auto;html=1;entryX=0.5;entryY=0;entryDx=0;entryDy=0;" edge="1" parent="1" source="5_94e8n7h1rJNtOSXoxy-64" target="5_94e8n7h1rJNtOSXoxy-75">
          <mxGeometry relative="1" as="geometry" />
        </mxCell>
        <mxCell id="5_94e8n7h1rJNtOSXoxy-64" value="net_json_check_dev_valid()&lt;br&gt;//判断下挂设备数据有效性" style="whiteSpace=wrap;html=1;rounded=1;" vertex="1" parent="1">
          <mxGeometry x="910" y="1150" width="380" height="60" as="geometry" />
        </mxCell>
        <mxCell id="5_94e8n7h1rJNtOSXoxy-79" value="" style="edgeStyle=orthogonalEdgeStyle;rounded=0;orthogonalLoop=1;jettySize=auto;html=1;" edge="1" parent="1" source="5_94e8n7h1rJNtOSXoxy-74" target="5_94e8n7h1rJNtOSXoxy-78">
          <mxGeometry relative="1" as="geometry" />
        </mxCell>
        <mxCell id="5_94e8n7h1rJNtOSXoxy-74" value="WLAN" style="rounded=1;whiteSpace=wrap;html=1;" vertex="1" parent="1">
          <mxGeometry x="830" y="1280" width="210" height="60" as="geometry" />
        </mxCell>
        <mxCell id="5_94e8n7h1rJNtOSXoxy-81" value="" style="edgeStyle=orthogonalEdgeStyle;rounded=0;orthogonalLoop=1;jettySize=auto;html=1;" edge="1" parent="1" source="5_94e8n7h1rJNtOSXoxy-75" target="5_94e8n7h1rJNtOSXoxy-80">
          <mxGeometry relative="1" as="geometry" />
        </mxCell>
        <mxCell id="5_94e8n7h1rJNtOSXoxy-75" value="ETH" style="rounded=1;whiteSpace=wrap;html=1;" vertex="1" parent="1">
          <mxGeometry x="1160" y="1280" width="210" height="60" as="geometry" />
        </mxCell>
        <mxCell id="5_94e8n7h1rJNtOSXoxy-85" style="edgeStyle=orthogonalEdgeStyle;rounded=0;orthogonalLoop=1;jettySize=auto;html=1;entryX=0.5;entryY=0;entryDx=0;entryDy=0;" edge="1" parent="1" source="5_94e8n7h1rJNtOSXoxy-78" target="5_94e8n7h1rJNtOSXoxy-82">
          <mxGeometry relative="1" as="geometry" />
        </mxCell>
        <mxCell id="5_94e8n7h1rJNtOSXoxy-78" value="获取无线下挂设备信息" style="rounded=1;whiteSpace=wrap;html=1;" vertex="1" parent="1">
          <mxGeometry x="830" y="1420" width="210" height="60" as="geometry" />
        </mxCell>
        <mxCell id="5_94e8n7h1rJNtOSXoxy-84" style="edgeStyle=orthogonalEdgeStyle;rounded=0;orthogonalLoop=1;jettySize=auto;html=1;entryX=0.5;entryY=0;entryDx=0;entryDy=0;" edge="1" parent="1" source="5_94e8n7h1rJNtOSXoxy-80" target="5_94e8n7h1rJNtOSXoxy-82">
          <mxGeometry relative="1" as="geometry" />
        </mxCell>
        <mxCell id="5_94e8n7h1rJNtOSXoxy-80" value="获取有线设备下挂信息" style="rounded=1;whiteSpace=wrap;html=1;" vertex="1" parent="1">
          <mxGeometry x="1160" y="1420" width="210" height="60" as="geometry" />
        </mxCell>
        <mxCell id="5_94e8n7h1rJNtOSXoxy-82" value="将数据加到cJSON链表里" style="rounded=1;whiteSpace=wrap;html=1;" vertex="1" parent="1">
          <mxGeometry x="1010" y="1550" width="190" height="60" as="geometry" />
        </mxCell>
        <mxCell id="5_94e8n7h1rJNtOSXoxy-90" value="" style="edgeStyle=orthogonalEdgeStyle;rounded=0;orthogonalLoop=1;jettySize=auto;html=1;" edge="1" parent="1" source="5_94e8n7h1rJNtOSXoxy-86" target="5_94e8n7h1rJNtOSXoxy-89">
          <mxGeometry relative="1" as="geometry" />
        </mxCell>
        <mxCell id="5_94e8n7h1rJNtOSXoxy-86" value="csSgw_proxy_queryadev_param()" style="whiteSpace=wrap;html=1;rounded=1;" vertex="1" parent="1">
          <mxGeometry x="1470" y="840" width="250" height="60" as="geometry" />
        </mxCell>
        <mxCell id="5_94e8n7h1rJNtOSXoxy-103" style="edgeStyle=orthogonalEdgeStyle;rounded=0;orthogonalLoop=1;jettySize=auto;html=1;entryX=1;entryY=0.75;entryDx=0;entryDy=0;" edge="1" parent="1" source="5_94e8n7h1rJNtOSXoxy-89" target="5_94e8n7h1rJNtOSXoxy-60">
          <mxGeometry relative="1" as="geometry">
            <Array as="points">
              <mxPoint x="1370" y="1010" />
              <mxPoint x="1370" y="1055" />
            </Array>
          </mxGeometry>
        </mxCell>
        <mxCell id="5_94e8n7h1rJNtOSXoxy-89" value="plib_adev_qry_param(ACCESS_DEV_PARA_KEY,&amp;amp;tAdevinfo)" style="whiteSpace=wrap;html=1;rounded=1;" vertex="1" parent="1">
          <mxGeometry x="1400" y="980" width="390" height="60" as="geometry" />
        </mxCell>
        <mxCell id="5_94e8n7h1rJNtOSXoxy-102" style="edgeStyle=orthogonalEdgeStyle;rounded=0;orthogonalLoop=1;jettySize=auto;html=1;" edge="1" parent="1" source="5_94e8n7h1rJNtOSXoxy-91" target="5_94e8n7h1rJNtOSXoxy-89">
          <mxGeometry relative="1" as="geometry">
            <Array as="points">
              <mxPoint x="1370" y="1144" />
              <mxPoint x="1370" y="1077" />
              <mxPoint x="1460" y="1077" />
            </Array>
          </mxGeometry>
        </mxCell>
        <mxCell id="5_94e8n7h1rJNtOSXoxy-91" value="SSEND(EV_CSPD_ADEV_QRY,(VOID *)tpReqMsg,sizeof(T_ADEV_PARA_QRY)+wReqLen,ADEV_QRYMSG_TIMEOUT,ptAck,&amp;amp;wAckLen,ADEV_MGR_PID)" style="whiteSpace=wrap;html=1;rounded=1;" vertex="1" parent="1">
          <mxGeometry x="1390" y="1114" width="860" height="60" as="geometry" />
        </mxCell>
        <mxCell id="5_94e8n7h1rJNtOSXoxy-93" value="" style="html=1;verticalLabelPosition=bottom;align=center;labelBackgroundColor=#ffffff;verticalAlign=top;strokeWidth=2;strokeColor=#0080F0;shadow=0;dashed=0;shape=mxgraph.ios7.icons.wifi;pointerEvents=1;fontSize=20;rotation=65;" vertex="1" parent="1">
          <mxGeometry x="2260" y="1010.0000000000001" width="60" height="91" as="geometry" />
        </mxCell>
        <mxCell id="5_94e8n7h1rJNtOSXoxy-96" value="" style="edgeStyle=orthogonalEdgeStyle;rounded=0;orthogonalLoop=1;jettySize=auto;html=1;" edge="1" parent="1" source="5_94e8n7h1rJNtOSXoxy-94" target="5_94e8n7h1rJNtOSXoxy-95">
          <mxGeometry relative="1" as="geometry" />
        </mxCell>
        <mxCell id="5_94e8n7h1rJNtOSXoxy-94" value="si_adev_sync_query()&lt;br&gt;" style="rounded=1;whiteSpace=wrap;html=1;" vertex="1" parent="1">
          <mxGeometry x="2350" y="1000" width="250" height="60" as="geometry" />
        </mxCell>
        <mxCell id="5_94e8n7h1rJNtOSXoxy-98" value="" style="edgeStyle=orthogonalEdgeStyle;rounded=0;orthogonalLoop=1;jettySize=auto;html=1;" edge="1" parent="1" source="5_94e8n7h1rJNtOSXoxy-95" target="5_94e8n7h1rJNtOSXoxy-97">
          <mxGeometry relative="1" as="geometry" />
        </mxCell>
        <mxCell id="5_94e8n7h1rJNtOSXoxy-95" value="获取各种设备信息" style="rounded=1;whiteSpace=wrap;html=1;" vertex="1" parent="1">
          <mxGeometry x="2350" y="1190" width="250" height="60" as="geometry" />
        </mxCell>
        <mxCell id="5_94e8n7h1rJNtOSXoxy-97" value="反悔查询结果" style="rounded=1;whiteSpace=wrap;html=1;" vertex="1" parent="1">
          <mxGeometry x="2350" y="1330" width="250" height="60" as="geometry" />
        </mxCell>
        <mxCell id="5_94e8n7h1rJNtOSXoxy-99" value="" style="html=1;verticalLabelPosition=bottom;align=center;labelBackgroundColor=#ffffff;verticalAlign=top;strokeWidth=2;strokeColor=#0080F0;shadow=0;dashed=0;shape=mxgraph.ios7.icons.wifi;pointerEvents=1;fontSize=20;rotation=-45;" vertex="1" parent="1">
          <mxGeometry x="2250" y="1210" width="60" height="136.26" as="geometry" />
        </mxCell>
        <mxCell id="5_94e8n7h1rJNtOSXoxy-104" value="" style="edgeStyle=orthogonalEdgeStyle;rounded=0;orthogonalLoop=1;jettySize=auto;html=1;" edge="1" source="5_94e8n7h1rJNtOSXoxy-113" target="5_94e8n7h1rJNtOSXoxy-114" parent="1">
          <mxGeometry relative="1" as="geometry" />
        </mxCell>
        <mxCell id="5_94e8n7h1rJNtOSXoxy-105" value="" style="edgeStyle=orthogonalEdgeStyle;rounded=0;orthogonalLoop=1;jettySize=auto;html=1;" edge="1" source="5_94e8n7h1rJNtOSXoxy-114" parent="1">
          <mxGeometry relative="1" as="geometry">
            <mxPoint x="1820" y="1114" as="targetPoint" />
          </mxGeometry>
        </mxCell>
        <mxCell id="5_94e8n7h1rJNtOSXoxy-106" value="" style="html=1;verticalLabelPosition=bottom;align=center;labelBackgroundColor=#ffffff;verticalAlign=top;strokeWidth=2;strokeColor=#0080F0;shadow=0;dashed=0;shape=mxgraph.ios7.icons.wifi;pointerEvents=1;fontSize=20;rotation=65;" vertex="1" parent="1">
          <mxGeometry x="2260" y="1010.0000000000001" width="60" height="91" as="geometry" />
        </mxCell>
        <mxCell id="5_94e8n7h1rJNtOSXoxy-107" value="" style="edgeStyle=orthogonalEdgeStyle;rounded=0;orthogonalLoop=1;jettySize=auto;html=1;" edge="1" source="5_94e8n7h1rJNtOSXoxy-108" target="5_94e8n7h1rJNtOSXoxy-110" parent="1">
          <mxGeometry relative="1" as="geometry" />
        </mxCell>
        <mxCell id="5_94e8n7h1rJNtOSXoxy-108" value="si_adev_sync_query()&lt;br&gt;" style="rounded=1;whiteSpace=wrap;html=1;" vertex="1" parent="1">
          <mxGeometry x="2350" y="1000" width="250" height="60" as="geometry" />
        </mxCell>
        <mxCell id="5_94e8n7h1rJNtOSXoxy-109" value="" style="edgeStyle=orthogonalEdgeStyle;rounded=0;orthogonalLoop=1;jettySize=auto;html=1;" edge="1" source="5_94e8n7h1rJNtOSXoxy-110" target="5_94e8n7h1rJNtOSXoxy-111" parent="1">
          <mxGeometry relative="1" as="geometry" />
        </mxCell>
        <mxCell id="5_94e8n7h1rJNtOSXoxy-110" value="获取各种设备信息" style="rounded=1;whiteSpace=wrap;html=1;" vertex="1" parent="1">
          <mxGeometry x="2350" y="1190" width="250" height="60" as="geometry" />
        </mxCell>
        <mxCell id="5_94e8n7h1rJNtOSXoxy-111" value="反悔查询结果" style="rounded=1;whiteSpace=wrap;html=1;" vertex="1" parent="1">
          <mxGeometry x="2350" y="1330" width="250" height="60" as="geometry" />
        </mxCell>
        <mxCell id="5_94e8n7h1rJNtOSXoxy-112" value="" style="html=1;verticalLabelPosition=bottom;align=center;labelBackgroundColor=#ffffff;verticalAlign=top;strokeWidth=2;strokeColor=#0080F0;shadow=0;dashed=0;shape=mxgraph.ios7.icons.wifi;pointerEvents=1;fontSize=20;rotation=-45;" vertex="1" parent="1">
          <mxGeometry x="2250" y="1210" width="60" height="136.26" as="geometry" />
        </mxCell>
        <mxCell id="5_94e8n7h1rJNtOSXoxy-113" value="csSgw_proxy_queryadev_param()" style="whiteSpace=wrap;html=1;rounded=1;" vertex="1" parent="1">
          <mxGeometry x="1470" y="840" width="250" height="60" as="geometry" />
        </mxCell>
        <mxCell id="5_94e8n7h1rJNtOSXoxy-114" value="plib_adev_qry_param(ACCESS_DEV_PARA_KEY,&amp;amp;tAdevinfo)" style="whiteSpace=wrap;html=1;rounded=1;" vertex="1" parent="1">
          <mxGeometry x="1400" y="980" width="390" height="60" as="geometry" />
        </mxCell>
        <mxCell id="5_94e8n7h1rJNtOSXoxy-115" value="" style="edgeStyle=orthogonalEdgeStyle;rounded=0;orthogonalLoop=1;jettySize=auto;html=1;" edge="1" source="5_94e8n7h1rJNtOSXoxy-124" target="5_94e8n7h1rJNtOSXoxy-125" parent="1">
          <mxGeometry relative="1" as="geometry" />
        </mxCell>
        <mxCell id="5_94e8n7h1rJNtOSXoxy-116" value="" style="edgeStyle=orthogonalEdgeStyle;rounded=0;orthogonalLoop=1;jettySize=auto;html=1;" edge="1" source="5_94e8n7h1rJNtOSXoxy-125" parent="1">
          <mxGeometry relative="1" as="geometry">
            <mxPoint x="1820" y="1114" as="targetPoint" />
          </mxGeometry>
        </mxCell>
        <mxCell id="5_94e8n7h1rJNtOSXoxy-117" value="" style="html=1;verticalLabelPosition=bottom;align=center;labelBackgroundColor=#ffffff;verticalAlign=top;strokeWidth=2;strokeColor=#0080F0;shadow=0;dashed=0;shape=mxgraph.ios7.icons.wifi;pointerEvents=1;fontSize=20;rotation=65;" vertex="1" parent="1">
          <mxGeometry x="2260" y="1010.0000000000001" width="60" height="91" as="geometry" />
        </mxCell>
        <mxCell id="5_94e8n7h1rJNtOSXoxy-118" value="" style="edgeStyle=orthogonalEdgeStyle;rounded=0;orthogonalLoop=1;jettySize=auto;html=1;" edge="1" source="5_94e8n7h1rJNtOSXoxy-119" target="5_94e8n7h1rJNtOSXoxy-121" parent="1">
          <mxGeometry relative="1" as="geometry" />
        </mxCell>
        <mxCell id="5_94e8n7h1rJNtOSXoxy-119" value="si_adev_sync_query()&lt;br&gt;" style="rounded=1;whiteSpace=wrap;html=1;" vertex="1" parent="1">
          <mxGeometry x="2350" y="1000" width="250" height="60" as="geometry" />
        </mxCell>
        <mxCell id="5_94e8n7h1rJNtOSXoxy-120" value="" style="edgeStyle=orthogonalEdgeStyle;rounded=0;orthogonalLoop=1;jettySize=auto;html=1;" edge="1" source="5_94e8n7h1rJNtOSXoxy-121" target="5_94e8n7h1rJNtOSXoxy-122" parent="1">
          <mxGeometry relative="1" as="geometry" />
        </mxCell>
        <mxCell id="5_94e8n7h1rJNtOSXoxy-121" value="获取各种设备信息" style="rounded=1;whiteSpace=wrap;html=1;" vertex="1" parent="1">
          <mxGeometry x="2350" y="1190" width="250" height="60" as="geometry" />
        </mxCell>
        <mxCell id="5_94e8n7h1rJNtOSXoxy-122" value="反悔查询结果" style="rounded=1;whiteSpace=wrap;html=1;" vertex="1" parent="1">
          <mxGeometry x="2350" y="1330" width="250" height="60" as="geometry" />
        </mxCell>
        <mxCell id="5_94e8n7h1rJNtOSXoxy-123" value="" style="html=1;verticalLabelPosition=bottom;align=center;labelBackgroundColor=#ffffff;verticalAlign=top;strokeWidth=2;strokeColor=#0080F0;shadow=0;dashed=0;shape=mxgraph.ios7.icons.wifi;pointerEvents=1;fontSize=20;rotation=-45;" vertex="1" parent="1">
          <mxGeometry x="2250" y="1210" width="60" height="136.26" as="geometry" />
        </mxCell>
        <mxCell id="5_94e8n7h1rJNtOSXoxy-124" value="csSgw_proxy_queryadev_param()" style="whiteSpace=wrap;html=1;rounded=1;" vertex="1" parent="1">
          <mxGeometry x="1470" y="840" width="250" height="60" as="geometry" />
        </mxCell>
        <mxCell id="5_94e8n7h1rJNtOSXoxy-125" value="plib_adev_qry_param(ACCESS_DEV_PARA_KEY,&amp;amp;tAdevinfo)" style="whiteSpace=wrap;html=1;rounded=1;" vertex="1" parent="1">
          <mxGeometry x="1400" y="980" width="390" height="60" as="geometry" />
        </mxCell>
        <mxCell id="5_94e8n7h1rJNtOSXoxy-126" value="" style="edgeStyle=orthogonalEdgeStyle;rounded=0;orthogonalLoop=1;jettySize=auto;html=1;" edge="1" source="5_94e8n7h1rJNtOSXoxy-135" target="5_94e8n7h1rJNtOSXoxy-136" parent="1">
          <mxGeometry relative="1" as="geometry" />
        </mxCell>
        <mxCell id="5_94e8n7h1rJNtOSXoxy-127" value="" style="edgeStyle=orthogonalEdgeStyle;rounded=0;orthogonalLoop=1;jettySize=auto;html=1;" edge="1" source="5_94e8n7h1rJNtOSXoxy-136" parent="1">
          <mxGeometry relative="1" as="geometry">
            <mxPoint x="1820" y="1114" as="targetPoint" />
          </mxGeometry>
        </mxCell>
        <mxCell id="5_94e8n7h1rJNtOSXoxy-128" value="" style="html=1;verticalLabelPosition=bottom;align=center;labelBackgroundColor=#ffffff;verticalAlign=top;strokeWidth=2;strokeColor=#0080F0;shadow=0;dashed=0;shape=mxgraph.ios7.icons.wifi;pointerEvents=1;fontSize=20;rotation=65;" vertex="1" parent="1">
          <mxGeometry x="2260" y="1010.0000000000001" width="60" height="91" as="geometry" />
        </mxCell>
        <mxCell id="5_94e8n7h1rJNtOSXoxy-129" value="" style="edgeStyle=orthogonalEdgeStyle;rounded=0;orthogonalLoop=1;jettySize=auto;html=1;" edge="1" source="5_94e8n7h1rJNtOSXoxy-130" target="5_94e8n7h1rJNtOSXoxy-132" parent="1">
          <mxGeometry relative="1" as="geometry" />
        </mxCell>
        <mxCell id="5_94e8n7h1rJNtOSXoxy-130" value="si_adev_sync_query()&lt;br&gt;" style="rounded=1;whiteSpace=wrap;html=1;" vertex="1" parent="1">
          <mxGeometry x="2350" y="1000" width="250" height="60" as="geometry" />
        </mxCell>
        <mxCell id="5_94e8n7h1rJNtOSXoxy-131" value="" style="edgeStyle=orthogonalEdgeStyle;rounded=0;orthogonalLoop=1;jettySize=auto;html=1;" edge="1" source="5_94e8n7h1rJNtOSXoxy-132" target="5_94e8n7h1rJNtOSXoxy-133" parent="1">
          <mxGeometry relative="1" as="geometry" />
        </mxCell>
        <mxCell id="5_94e8n7h1rJNtOSXoxy-132" value="获取各种设备信息" style="rounded=1;whiteSpace=wrap;html=1;" vertex="1" parent="1">
          <mxGeometry x="2350" y="1190" width="250" height="60" as="geometry" />
        </mxCell>
        <mxCell id="5_94e8n7h1rJNtOSXoxy-133" value="反悔查询结果" style="rounded=1;whiteSpace=wrap;html=1;" vertex="1" parent="1">
          <mxGeometry x="2350" y="1330" width="250" height="60" as="geometry" />
        </mxCell>
        <mxCell id="5_94e8n7h1rJNtOSXoxy-134" value="" style="html=1;verticalLabelPosition=bottom;align=center;labelBackgroundColor=#ffffff;verticalAlign=top;strokeWidth=2;strokeColor=#0080F0;shadow=0;dashed=0;shape=mxgraph.ios7.icons.wifi;pointerEvents=1;fontSize=20;rotation=-45;" vertex="1" parent="1">
          <mxGeometry x="2250" y="1210" width="60" height="136.26" as="geometry" />
        </mxCell>
        <mxCell id="5_94e8n7h1rJNtOSXoxy-135" value="csSgw_proxy_queryadev_param()" style="whiteSpace=wrap;html=1;rounded=1;" vertex="1" parent="1">
          <mxGeometry x="1470" y="840" width="250" height="60" as="geometry" />
        </mxCell>
        <mxCell id="5_94e8n7h1rJNtOSXoxy-136" value="plib_adev_qry_param(ACCESS_DEV_PARA_KEY,&amp;amp;tAdevinfo)" style="whiteSpace=wrap;html=1;rounded=1;" vertex="1" parent="1">
          <mxGeometry x="1400" y="980" width="390" height="60" as="geometry" />
        </mxCell>
        <mxCell id="5_94e8n7h1rJNtOSXoxy-137" value="" style="edgeStyle=orthogonalEdgeStyle;rounded=0;orthogonalLoop=1;jettySize=auto;html=1;" edge="1" source="5_94e8n7h1rJNtOSXoxy-138" target="5_94e8n7h1rJNtOSXoxy-140" parent="1">
          <mxGeometry relative="1" as="geometry" />
        </mxCell>
        <mxCell id="5_94e8n7h1rJNtOSXoxy-138" value="csSgw_proxy_queryadev_param()" style="whiteSpace=wrap;html=1;rounded=1;" vertex="1" parent="1">
          <mxGeometry x="1470" y="840" width="250" height="60" as="geometry" />
        </mxCell>
        <mxCell id="5_94e8n7h1rJNtOSXoxy-140" value="plib_adev_qry_param(ACCESS_DEV_PARA_KEY,&amp;amp;tAdevinfo)" style="whiteSpace=wrap;html=1;rounded=1;" vertex="1" parent="1">
          <mxGeometry x="1400" y="980" width="390" height="60" as="geometry" />
        </mxCell>
        <mxCell id="5_94e8n7h1rJNtOSXoxy-141" value="SSEND(EV_CSPD_ADEV_QRY,(VOID *)tpReqMsg,sizeof(T_ADEV_PARA_QRY)+wReqLen,ADEV_QRYMSG_TIMEOUT,ptAck,&amp;amp;wAckLen,ADEV_MGR_PID)" style="whiteSpace=wrap;html=1;rounded=1;" vertex="1" parent="1">
          <mxGeometry x="1390" y="1114" width="860" height="60" as="geometry" />
        </mxCell>
        <mxCell id="5_94e8n7h1rJNtOSXoxy-142" value="" style="html=1;verticalLabelPosition=bottom;align=center;labelBackgroundColor=#ffffff;verticalAlign=top;strokeWidth=2;strokeColor=#0080F0;shadow=0;dashed=0;shape=mxgraph.ios7.icons.wifi;pointerEvents=1;fontSize=20;rotation=65;" vertex="1" parent="1">
          <mxGeometry x="2260" y="1010.0000000000001" width="60" height="91" as="geometry" />
        </mxCell>
        <mxCell id="5_94e8n7h1rJNtOSXoxy-143" value="" style="edgeStyle=orthogonalEdgeStyle;rounded=0;orthogonalLoop=1;jettySize=auto;html=1;" edge="1" source="5_94e8n7h1rJNtOSXoxy-144" target="5_94e8n7h1rJNtOSXoxy-146" parent="1">
          <mxGeometry relative="1" as="geometry" />
        </mxCell>
        <mxCell id="5_94e8n7h1rJNtOSXoxy-144" value="si_adev_sync_query()&lt;br&gt;" style="rounded=1;whiteSpace=wrap;html=1;" vertex="1" parent="1">
          <mxGeometry x="2350" y="1000" width="250" height="60" as="geometry" />
        </mxCell>
        <mxCell id="5_94e8n7h1rJNtOSXoxy-145" value="" style="edgeStyle=orthogonalEdgeStyle;rounded=0;orthogonalLoop=1;jettySize=auto;html=1;" edge="1" source="5_94e8n7h1rJNtOSXoxy-146" target="5_94e8n7h1rJNtOSXoxy-147" parent="1">
          <mxGeometry relative="1" as="geometry" />
        </mxCell>
        <mxCell id="5_94e8n7h1rJNtOSXoxy-146" value="获取各种设备信息" style="rounded=1;whiteSpace=wrap;html=1;" vertex="1" parent="1">
          <mxGeometry x="2350" y="1190" width="250" height="60" as="geometry" />
        </mxCell>
        <mxCell id="5_94e8n7h1rJNtOSXoxy-147" value="反悔查询结果" style="rounded=1;whiteSpace=wrap;html=1;" vertex="1" parent="1">
          <mxGeometry x="2350" y="1330" width="250" height="60" as="geometry" />
        </mxCell>
        <mxCell id="5_94e8n7h1rJNtOSXoxy-148" value="" style="html=1;verticalLabelPosition=bottom;align=center;labelBackgroundColor=#ffffff;verticalAlign=top;strokeWidth=2;strokeColor=#0080F0;shadow=0;dashed=0;shape=mxgraph.ios7.icons.wifi;pointerEvents=1;fontSize=20;rotation=-45;" vertex="1" parent="1">
          <mxGeometry x="2250" y="1210" width="60" height="136.26" as="geometry" />
        </mxCell>
        <mxCell id="5_94e8n7h1rJNtOSXoxy-149" value="" style="edgeStyle=orthogonalEdgeStyle;rounded=0;orthogonalLoop=1;jettySize=auto;html=1;" edge="1" source="5_94e8n7h1rJNtOSXoxy-158" target="5_94e8n7h1rJNtOSXoxy-159" parent="1">
          <mxGeometry relative="1" as="geometry" />
        </mxCell>
        <mxCell id="5_94e8n7h1rJNtOSXoxy-150" value="" style="edgeStyle=orthogonalEdgeStyle;rounded=0;orthogonalLoop=1;jettySize=auto;html=1;" edge="1" source="5_94e8n7h1rJNtOSXoxy-159" parent="1">
          <mxGeometry relative="1" as="geometry">
            <mxPoint x="1820" y="1114" as="targetPoint" />
          </mxGeometry>
        </mxCell>
        <mxCell id="5_94e8n7h1rJNtOSXoxy-151" value="" style="html=1;verticalLabelPosition=bottom;align=center;labelBackgroundColor=#ffffff;verticalAlign=top;strokeWidth=2;strokeColor=#0080F0;shadow=0;dashed=0;shape=mxgraph.ios7.icons.wifi;pointerEvents=1;fontSize=20;rotation=65;" vertex="1" parent="1">
          <mxGeometry x="2260" y="1010.0000000000001" width="60" height="91" as="geometry" />
        </mxCell>
        <mxCell id="5_94e8n7h1rJNtOSXoxy-152" value="" style="edgeStyle=orthogonalEdgeStyle;rounded=0;orthogonalLoop=1;jettySize=auto;html=1;" edge="1" source="5_94e8n7h1rJNtOSXoxy-153" target="5_94e8n7h1rJNtOSXoxy-155" parent="1">
          <mxGeometry relative="1" as="geometry" />
        </mxCell>
        <mxCell id="5_94e8n7h1rJNtOSXoxy-153" value="si_adev_sync_query()&lt;br&gt;" style="rounded=1;whiteSpace=wrap;html=1;" vertex="1" parent="1">
          <mxGeometry x="2350" y="1000" width="250" height="60" as="geometry" />
        </mxCell>
        <mxCell id="5_94e8n7h1rJNtOSXoxy-154" value="" style="edgeStyle=orthogonalEdgeStyle;rounded=0;orthogonalLoop=1;jettySize=auto;html=1;" edge="1" source="5_94e8n7h1rJNtOSXoxy-155" target="5_94e8n7h1rJNtOSXoxy-156" parent="1">
          <mxGeometry relative="1" as="geometry" />
        </mxCell>
        <mxCell id="5_94e8n7h1rJNtOSXoxy-155" value="获取各种设备信息" style="rounded=1;whiteSpace=wrap;html=1;" vertex="1" parent="1">
          <mxGeometry x="2350" y="1190" width="250" height="60" as="geometry" />
        </mxCell>
        <mxCell id="5_94e8n7h1rJNtOSXoxy-156" value="反悔查询结果" style="rounded=1;whiteSpace=wrap;html=1;" vertex="1" parent="1">
          <mxGeometry x="2350" y="1330" width="250" height="60" as="geometry" />
        </mxCell>
        <mxCell id="5_94e8n7h1rJNtOSXoxy-157" value="" style="html=1;verticalLabelPosition=bottom;align=center;labelBackgroundColor=#ffffff;verticalAlign=top;strokeWidth=2;strokeColor=#0080F0;shadow=0;dashed=0;shape=mxgraph.ios7.icons.wifi;pointerEvents=1;fontSize=20;rotation=-45;" vertex="1" parent="1">
          <mxGeometry x="2250" y="1210" width="60" height="136.26" as="geometry" />
        </mxCell>
        <mxCell id="5_94e8n7h1rJNtOSXoxy-158" value="csSgw_proxy_queryadev_param()" style="whiteSpace=wrap;html=1;rounded=1;" vertex="1" parent="1">
          <mxGeometry x="1470" y="840" width="250" height="60" as="geometry" />
        </mxCell>
        <mxCell id="5_94e8n7h1rJNtOSXoxy-159" value="plib_adev_qry_param(ACCESS_DEV_PARA_KEY,&amp;amp;tAdevinfo)" style="whiteSpace=wrap;html=1;rounded=1;" vertex="1" parent="1">
          <mxGeometry x="1400" y="980" width="390" height="60" as="geometry" />
        </mxCell>
        <mxCell id="5_94e8n7h1rJNtOSXoxy-160" value="" style="edgeStyle=orthogonalEdgeStyle;rounded=0;orthogonalLoop=1;jettySize=auto;html=1;" edge="1" source="5_94e8n7h1rJNtOSXoxy-169" target="5_94e8n7h1rJNtOSXoxy-170" parent="1">
          <mxGeometry relative="1" as="geometry" />
        </mxCell>
        <mxCell id="5_94e8n7h1rJNtOSXoxy-161" value="" style="edgeStyle=orthogonalEdgeStyle;rounded=0;orthogonalLoop=1;jettySize=auto;html=1;" edge="1" source="5_94e8n7h1rJNtOSXoxy-170" parent="1">
          <mxGeometry relative="1" as="geometry">
            <mxPoint x="1820" y="1114" as="targetPoint" />
          </mxGeometry>
        </mxCell>
        <mxCell id="5_94e8n7h1rJNtOSXoxy-162" value="" style="html=1;verticalLabelPosition=bottom;align=center;labelBackgroundColor=#ffffff;verticalAlign=top;strokeWidth=2;strokeColor=#0080F0;shadow=0;dashed=0;shape=mxgraph.ios7.icons.wifi;pointerEvents=1;fontSize=20;rotation=65;" vertex="1" parent="1">
          <mxGeometry x="2260" y="1010.0000000000001" width="60" height="91" as="geometry" />
        </mxCell>
        <mxCell id="5_94e8n7h1rJNtOSXoxy-163" value="" style="edgeStyle=orthogonalEdgeStyle;rounded=0;orthogonalLoop=1;jettySize=auto;html=1;" edge="1" source="5_94e8n7h1rJNtOSXoxy-164" target="5_94e8n7h1rJNtOSXoxy-166" parent="1">
          <mxGeometry relative="1" as="geometry" />
        </mxCell>
        <mxCell id="5_94e8n7h1rJNtOSXoxy-164" value="si_adev_sync_query()&lt;br&gt;" style="rounded=1;whiteSpace=wrap;html=1;" vertex="1" parent="1">
          <mxGeometry x="2350" y="1000" width="250" height="60" as="geometry" />
        </mxCell>
        <mxCell id="5_94e8n7h1rJNtOSXoxy-165" value="" style="edgeStyle=orthogonalEdgeStyle;rounded=0;orthogonalLoop=1;jettySize=auto;html=1;" edge="1" source="5_94e8n7h1rJNtOSXoxy-166" target="5_94e8n7h1rJNtOSXoxy-167" parent="1">
          <mxGeometry relative="1" as="geometry" />
        </mxCell>
        <mxCell id="5_94e8n7h1rJNtOSXoxy-166" value="获取各种设备信息" style="rounded=1;whiteSpace=wrap;html=1;" vertex="1" parent="1">
          <mxGeometry x="2350" y="1190" width="250" height="60" as="geometry" />
        </mxCell>
        <mxCell id="5_94e8n7h1rJNtOSXoxy-167" value="反悔查询结果" style="rounded=1;whiteSpace=wrap;html=1;" vertex="1" parent="1">
          <mxGeometry x="2350" y="1330" width="250" height="60" as="geometry" />
        </mxCell>
        <mxCell id="5_94e8n7h1rJNtOSXoxy-168" value="" style="html=1;verticalLabelPosition=bottom;align=center;labelBackgroundColor=#ffffff;verticalAlign=top;strokeWidth=2;strokeColor=#0080F0;shadow=0;dashed=0;shape=mxgraph.ios7.icons.wifi;pointerEvents=1;fontSize=20;rotation=-45;" vertex="1" parent="1">
          <mxGeometry x="2250" y="1210" width="60" height="136.26" as="geometry" />
        </mxCell>
        <mxCell id="5_94e8n7h1rJNtOSXoxy-169" value="csSgw_proxy_queryadev_param()" style="whiteSpace=wrap;html=1;rounded=1;" vertex="1" parent="1">
          <mxGeometry x="1470" y="840" width="250" height="60" as="geometry" />
        </mxCell>
        <mxCell id="5_94e8n7h1rJNtOSXoxy-170" value="plib_adev_qry_param(ACCESS_DEV_PARA_KEY,&amp;amp;tAdevinfo)" style="whiteSpace=wrap;html=1;rounded=1;" vertex="1" parent="1">
          <mxGeometry x="1400" y="980" width="390" height="60" as="geometry" />
        </mxCell>
        <mxCell id="5_94e8n7h1rJNtOSXoxy-171" value="" style="edgeStyle=orthogonalEdgeStyle;rounded=0;orthogonalLoop=1;jettySize=auto;html=1;" edge="1" source="5_94e8n7h1rJNtOSXoxy-180" target="5_94e8n7h1rJNtOSXoxy-181" parent="1">
          <mxGeometry relative="1" as="geometry" />
        </mxCell>
        <mxCell id="5_94e8n7h1rJNtOSXoxy-172" value="" style="edgeStyle=orthogonalEdgeStyle;rounded=0;orthogonalLoop=1;jettySize=auto;html=1;" edge="1" source="5_94e8n7h1rJNtOSXoxy-181" parent="1">
          <mxGeometry relative="1" as="geometry">
            <mxPoint x="1820" y="1114" as="targetPoint" />
          </mxGeometry>
        </mxCell>
        <mxCell id="5_94e8n7h1rJNtOSXoxy-173" value="" style="html=1;verticalLabelPosition=bottom;align=center;labelBackgroundColor=#ffffff;verticalAlign=top;strokeWidth=2;strokeColor=#0080F0;shadow=0;dashed=0;shape=mxgraph.ios7.icons.wifi;pointerEvents=1;fontSize=20;rotation=65;" vertex="1" parent="1">
          <mxGeometry x="2260" y="1010.0000000000001" width="60" height="91" as="geometry" />
        </mxCell>
        <mxCell id="5_94e8n7h1rJNtOSXoxy-174" value="" style="edgeStyle=orthogonalEdgeStyle;rounded=0;orthogonalLoop=1;jettySize=auto;html=1;" edge="1" source="5_94e8n7h1rJNtOSXoxy-175" target="5_94e8n7h1rJNtOSXoxy-177" parent="1">
          <mxGeometry relative="1" as="geometry" />
        </mxCell>
        <mxCell id="5_94e8n7h1rJNtOSXoxy-175" value="si_adev_sync_query()&lt;br&gt;" style="rounded=1;whiteSpace=wrap;html=1;" vertex="1" parent="1">
          <mxGeometry x="2350" y="1000" width="250" height="60" as="geometry" />
        </mxCell>
        <mxCell id="5_94e8n7h1rJNtOSXoxy-176" value="" style="edgeStyle=orthogonalEdgeStyle;rounded=0;orthogonalLoop=1;jettySize=auto;html=1;" edge="1" source="5_94e8n7h1rJNtOSXoxy-177" target="5_94e8n7h1rJNtOSXoxy-178" parent="1">
          <mxGeometry relative="1" as="geometry" />
        </mxCell>
        <mxCell id="5_94e8n7h1rJNtOSXoxy-177" value="获取各种设备信息" style="rounded=1;whiteSpace=wrap;html=1;" vertex="1" parent="1">
          <mxGeometry x="2350" y="1190" width="250" height="60" as="geometry" />
        </mxCell>
        <mxCell id="5_94e8n7h1rJNtOSXoxy-178" value="反悔查询结果" style="rounded=1;whiteSpace=wrap;html=1;" vertex="1" parent="1">
          <mxGeometry x="2350" y="1330" width="250" height="60" as="geometry" />
        </mxCell>
        <mxCell id="5_94e8n7h1rJNtOSXoxy-179" value="" style="html=1;verticalLabelPosition=bottom;align=center;labelBackgroundColor=#ffffff;verticalAlign=top;strokeWidth=2;strokeColor=#0080F0;shadow=0;dashed=0;shape=mxgraph.ios7.icons.wifi;pointerEvents=1;fontSize=20;rotation=-45;" vertex="1" parent="1">
          <mxGeometry x="2250" y="1210" width="60" height="136.26" as="geometry" />
        </mxCell>
        <mxCell id="5_94e8n7h1rJNtOSXoxy-180" value="csSgw_proxy_queryadev_param()" style="whiteSpace=wrap;html=1;rounded=1;" vertex="1" parent="1">
          <mxGeometry x="1470" y="840" width="250" height="60" as="geometry" />
        </mxCell>
        <mxCell id="5_94e8n7h1rJNtOSXoxy-181" value="plib_adev_qry_param(ACCESS_DEV_PARA_KEY,&amp;amp;tAdevinfo)" style="whiteSpace=wrap;html=1;rounded=1;" vertex="1" parent="1">
          <mxGeometry x="1400" y="980" width="390" height="60" as="geometry" />
        </mxCell>
      </root>
    </mxGraphModel>
  </diagram>
</mxfile>
